<?xml version="1.0" encoding="UTF-8" standalone="no"?>
<!DOCTYPE svg PUBLIC "-//W3C//DTD SVG 1.1//EN" "http://www.w3.org/Graphics/SVG/1.1/DTD/svg11.dtd">
<svg version="1.1" xmlns="http://www.w3.org/2000/svg" xmlns:xlink="http://www.w3.org/1999/xlink" preserveAspectRatio="xMidYMid meet" viewBox="137.8883731605238 328.83739899187185 229.12317777672897 237.2146475811851" width="225.12" height="233.21"><defs><path d="M244.94 331.49C237.1 335.48 174.39 367.42 166.55 371.41C162.45 373.49 159.48 377.45 158.46 382.17C156.54 391.13 141.19 462.82 139.27 471.78C138.36 475.98 139.09 480.39 141.38 484C141.65 484.43 141.93 484.85 142.22 485.26C174.72 528.4 192.77 552.37 196.38 557.16C199.25 560.92 203.54 563.07 208.07 563.05C216.76 563.05 286.25 563.05 294.94 563.05C299.49 563.06 303.79 560.8 306.65 557.1C312.06 549.9 355.36 492.37 360.78 485.18C363.62 481.42 364.68 476.46 363.59 471.76C361.66 462.79 346.21 391.05 344.28 382.08C343.26 377.36 340.27 373.4 336.19 371.32C328.36 367.34 265.75 335.48 257.92 331.5C255.67 330.31 253.17 329.74 250.66 329.85C248.71 329.98 246.75 330.53 244.94 331.49Z" id="e6oYQpI6rF"></path><path d="M297.85 416.83C301.29 410.84 299.58 402.98 294.04 399.27C290.22 396.71 285.39 396.71 281.57 399.27C275.9 395.28 269.59 392.46 262.97 390.93C261.46 384.06 255.08 379.82 248.72 381.45C244.36 382.56 240.96 386.23 239.93 390.93C233.31 392.46 227 395.28 221.33 399.27C215.78 395.55 208.5 397.4 205.05 403.38C202.69 407.5 202.69 412.71 205.05 416.83C201.36 422.95 198.74 429.76 197.33 436.9C190.96 438.53 187.03 445.42 188.54 452.28C189.57 456.98 192.97 460.65 197.33 461.77C198.74 468.91 201.36 475.71 205.05 481.84C201.61 487.82 203.32 495.68 208.86 499.4C212.68 501.95 217.51 501.95 221.33 499.4C227 503.38 233.31 506.21 239.93 507.74C241.44 514.6 247.82 518.85 254.18 517.22C258.54 516.1 261.94 512.43 262.97 507.74C269.59 506.21 275.9 503.38 281.57 499.4C287.12 503.11 294.4 501.27 297.85 495.29C300.21 491.17 300.21 485.96 297.85 481.84C301.54 475.71 304.16 468.91 305.57 461.77C311.94 460.14 315.87 453.25 314.36 446.38C313.33 441.68 309.93 438.02 305.57 436.9C304.16 429.76 301.54 422.95 297.85 416.83ZM276.61 492.69C272.15 495.71 267.24 497.91 262.11 499.2C259.27 492.85 252.2 490.18 246.31 493.24C243.9 494.5 241.96 496.6 240.79 499.2C235.66 497.91 230.75 495.71 226.29 492.69C228.45 486.07 225.22 478.81 219.09 476.49C216.56 475.52 213.8 475.52 211.27 476.49C208.47 471.67 206.43 466.38 205.24 460.83C211.12 457.77 213.59 450.14 210.76 443.79C209.6 441.19 207.65 439.09 205.24 437.83C206.43 432.29 208.47 427 211.27 422.18C215.55 423.82 220.31 422.65 223.51 419.18C226.7 415.71 227.78 410.59 226.29 405.98C230.75 402.95 235.66 400.75 240.79 399.47C243.63 405.82 250.7 408.48 256.59 405.42C259 404.17 260.94 402.07 262.11 399.47C267.24 400.75 272.15 402.95 276.61 405.98C275.12 410.59 276.2 415.72 279.39 419.18C282.59 422.65 287.36 423.82 291.63 422.18C294.43 427 296.47 432.29 297.66 437.83C291.78 440.9 289.31 448.53 292.14 454.88C293.3 457.48 295.25 459.58 297.66 460.83C296.47 466.38 294.43 471.67 291.63 476.49C287.35 474.88 282.6 476.04 279.39 479.49C276.2 482.95 275.12 488.08 276.61 492.69ZM290.57 413.15C289.03 414.81 286.53 414.81 284.98 413.15C283.44 411.48 283.44 408.78 284.98 407.12C284.98 407.12 284.98 407.12 284.98 407.12C286.53 405.46 289.03 405.46 290.57 407.12C292.12 408.78 292.12 411.48 290.57 413.15ZM255.4 393.9C255.4 396.25 253.63 398.16 251.45 398.16C249.27 398.16 247.5 396.25 247.5 393.9C247.5 391.54 249.27 389.63 251.45 389.63C253.63 389.63 255.4 391.54 255.4 393.9ZM217.92 407.12C219.46 408.78 219.46 411.48 217.92 413.15C216.37 414.81 213.87 414.81 212.33 413.15C212.33 413.15 212.33 413.15 212.33 413.15C210.79 411.48 210.79 408.79 212.33 407.12C213.87 405.45 216.37 405.45 217.92 407.12ZM204.03 449.33C204.03 451.69 202.26 453.6 200.08 453.6C197.89 453.6 196.12 451.69 196.12 449.33C196.13 446.98 197.89 445.07 200.08 445.07C202.26 445.07 204.03 446.98 204.03 449.33ZM212.33 485.52C213.87 483.85 216.37 483.85 217.92 485.52C219.46 487.18 219.46 489.88 217.92 491.55C217.92 491.55 217.92 491.55 217.92 491.55C216.37 493.21 213.87 493.21 212.33 491.55C210.78 489.88 210.78 487.18 212.33 485.52ZM247.5 504.77C247.5 502.42 249.27 500.51 251.45 500.51C253.63 500.51 255.4 502.42 255.4 504.77C255.4 507.12 253.63 509.03 251.45 509.03C249.27 509.03 247.5 507.13 247.5 504.77ZM284.98 491.55C283.44 489.88 283.44 487.18 284.98 485.52C286.53 483.85 289.03 483.85 290.57 485.52C290.57 485.52 290.57 485.52 290.57 485.52C292.11 487.18 292.11 489.88 290.57 491.55C289.03 493.21 286.53 493.21 284.98 491.55ZM298.87 449.33C298.87 446.98 300.64 445.07 302.82 445.07C305.01 445.07 306.78 446.98 306.78 449.33C306.77 451.69 305.01 453.6 302.82 453.6C300.64 453.6 298.87 451.69 298.87 449.33Z" id="aBAUJVFGH"></path><path d="M275.63 440.8C277.79 438.57 279.04 435.5 279.11 432.28C279.11 422.55 267.22 415.22 251.45 415.22C235.68 415.22 223.79 422.55 223.79 432.28C223.86 435.5 225.11 438.57 227.27 440.8C222.9 445.11 222.6 452.43 226.6 457.14C226.81 457.39 227.03 457.63 227.26 457.86C225.1 460.1 223.85 463.16 223.79 466.39C223.79 476.11 235.68 483.45 251.45 483.45C267.22 483.45 279.11 476.11 279.11 466.39C279.05 463.16 277.8 460.09 275.63 457.86C277.8 455.63 279.05 452.56 279.11 449.33C279.05 446.1 277.79 443.03 275.63 440.8ZM271.21 432.28C271.21 435.75 263.51 440.8 251.45 440.8C239.39 440.8 231.69 435.75 231.69 432.28C231.69 428.8 239.39 423.75 251.45 423.75C263.51 423.75 271.21 428.8 271.21 432.28ZM268.88 445.7C270.12 446.48 270.97 447.81 271.21 449.33C271.21 450.84 269.71 452.63 267.19 454.14C262.3 456.74 256.9 458.02 251.45 457.86C246 458.02 240.59 456.74 235.7 454.13C233.19 452.63 231.69 450.84 231.69 449.33C231.93 447.81 232.78 446.48 234.02 445.7C239.53 448.21 245.47 449.45 251.45 449.33C257.43 449.45 263.37 448.21 268.88 445.7ZM231.69 466.39C231.93 464.86 232.79 463.53 234.03 462.75C239.54 465.25 245.47 466.49 251.45 466.39C257.43 466.49 263.36 465.26 268.87 462.75C270.11 463.53 270.97 464.86 271.21 466.39C271.21 469.87 263.51 474.92 251.45 474.92C239.39 474.92 231.69 469.87 231.69 466.39Z" id="bXAYcgUXX"></path></defs><g><g><use xlink:href="#e6oYQpI6rF" opacity="1" fill="#326ce5" fill-opacity="1"></use><g><use xlink:href="#e6oYQpI6rF" opacity="1" fill-opacity="0" stroke="#000000" stroke-width="1" stroke-opacity="0"></use></g></g><g><use xlink:href="#aBAUJVFGH" opacity="1" fill="#ffffff" fill-opacity="1"></use><g><use xlink:href="#aBAUJVFGH" opacity="1" fill-opacity="0" stroke="#000000" stroke-width="1" stroke-opacity="0"></use></g></g><g><use xlink:href="#bXAYcgUXX" opacity="1" fill="#ffffff" fill-opacity="1"></use><g><use xlink:href="#bXAYcgUXX" opacity="1" fill-opacity="0" stroke="#000000" stroke-width="1" stroke-opacity="0"></use></g></g></g></svg>